<?xml version="1.0" encoding="UTF-8"?>
<svg width="1453px" height="160px" viewBox="0 0 1453 160" version="1.1" xmlns="http://www.w3.org/2000/svg" xmlns:xlink="http://www.w3.org/1999/xlink">
    <!-- Generator: Sketch 43.2 (39069) - http://www.bohemiancoding.com/sketch -->
    <title>Group 5</title>
    <desc>Created with Sketch.</desc>
    <defs></defs>
    <g id="Page-1" stroke="none" stroke-width="1" fill="none" fill-rule="evenodd">
        <g id="Artboard-Copy" transform="translate(-1613.000000, -6126.000000)">
            <g id="Group-5" transform="translate(1613.000000, 6126.000000)">
                <g id="Group-2-Copy">
                    <g id="Group-4">
                        <g id="Group" transform="translate(0.000000, 0.107919)">
                            <path d="M143.53038,43.281549 C139.657069,41.1467483 132.804045,39.1647343 125.091104,45.5933718 C114.913138,54.0756749 106.882333,45.5543848 106.882333,45.5543848 C106.882333,45.5543848 97.2832576,36.7254136 85.554914,45.5333107 C75.8263778,52.8407359 67.9839756,45.5238274 67.9839756,45.5238274 C67.9839756,45.5238274 56.5292898,35.9530499 46.9733685,45.5185589 C40.2655938,52.2338034 33.5778172,49.6806828 30.1844599,47.4668544 C17.0246753,70.7736945 5.34580068,105.225543 0,158.964358 L176.167235,158.964358 C170.491993,102.064437 157.675333,66.5030393 143.53038,43.281549" id="Fill-44" fill="#1D8261"></path>
                            <path d="M47.0004203,45.7034299 C56.5593297,36.1275636 68.0175971,45.7034299 68.0175971,45.7034299 C68.0175971,45.7034299 75.8624516,53.0190163 85.5940298,45.7034299 C97.3260407,36.8859123 106.928117,45.7034299 106.928117,45.7034299 C106.928117,45.7034299 114.961434,54.1939822 125.142583,45.7034299 C132.857935,39.2685406 139.713102,40.441397 143.587624,42.5793286 C118.24846,0.953473199 88.6399517,0 88.1282621,0 L88.1187864,0 C87.590251,0 56.0455343,0.970348831 30.2062621,46.76554 C33.6006804,48.9815214 40.2905482,52.425205 47.0004203,45.7034299" id="Fill-45" fill="#EEEEEE"></path>
                            <path d="M177.141312,29.4618261 L177.13499,29.4618261 C176.529203,29.4618261 122.281168,29.4618261 110.252857,158.964358 L244.023446,158.964358 C231.995134,29.4618261 177.746046,29.4618261 177.141312,29.4618261" id="Fill-46" fill="#1D8261"></path>
                            <path d="M145.316329,48.4555308 L145.311064,48.4555308 C144.794052,48.4555308 98.4188275,48.4555308 88.1375575,158.964358 L202.489835,158.964358 C192.207512,48.4555308 145.834394,48.4555308 145.316329,48.4555308" id="Fill-47" fill="#96CC9B"></path>
                            <polygon id="Fill-50" fill="#2BB3AF" points="29.2353465 150.546694 34.5214424 150.546694 34.5214424 133.711365 29.2353465 133.711365"></polygon>
                            <polyline id="Fill-51" fill="#1FAD81" points="14.3479745 140.078572 32.2559727 108.890046 50.1639709 140.078572 14.3479745 140.078572"></polyline>
                            <polyline id="Fill-52" fill="#1FAD81" points="16.6134441 128.531263 32.2020329 101.335731 47.7906218 128.531263 16.6134441 128.531263"></polyline>
                            <polyline id="Fill-53" fill="#1FAD81" points="19.5261908 115.688929 32.3099124 93.5655796 45.0936341 115.688929 19.5261908 115.688929"></polyline>
                            <polygon id="Fill-54" fill="#621E20" points="66.130138 129.502532 73.4659445 129.502532 73.4659445 110.508828 66.130138 110.508828"></polygon>
                            <polyline id="Fill-55" fill="#11513D" points="52.105802 119.897761 70.0143248 88.7092346 87.9217985 119.897761 52.105802 119.897761"></polyline>
                            <polyline id="Fill-56" fill="#11513D" points="54.4791512 107.379183 70.0682644 80.1836512 85.6563288 107.379183 54.4791512 107.379183"></polyline>
                            <polyline id="Fill-57" fill="#11513D" points="57.3918979 93.6734983 70.1756195 71.5501491 82.9593411 93.6734983 57.3918979 93.6734983"></polyline>
                        </g>
                        <g id="Group-Copy" transform="translate(242.836771, 0.000000)">
                            <path d="M143.53038,43.281549 C139.657069,41.1467483 132.804045,39.1647343 125.091104,45.5933718 C114.913138,54.0756749 106.882333,45.5543848 106.882333,45.5543848 C106.882333,45.5543848 97.2832576,36.7254136 85.554914,45.5333107 C75.8263778,52.8407359 67.9839756,45.5238274 67.9839756,45.5238274 C67.9839756,45.5238274 56.5292898,35.9530499 46.9733685,45.5185589 C40.2655938,52.2338034 33.5778172,49.6806828 30.1844599,47.4668544 C17.0246753,70.7736945 5.34580068,105.225543 0,158.964358 L176.167235,158.964358 C170.491993,102.064437 157.675333,66.5030393 143.53038,43.281549" id="Fill-44" fill="#1D8261"></path>
                            <path d="M47.0004203,45.7034299 C56.5593297,36.1275636 68.0175971,45.7034299 68.0175971,45.7034299 C68.0175971,45.7034299 75.8624516,53.0190163 85.5940298,45.7034299 C97.3260407,36.8859123 106.928117,45.7034299 106.928117,45.7034299 C106.928117,45.7034299 114.961434,54.1939822 125.142583,45.7034299 C132.857935,39.2685406 139.713102,40.441397 143.587624,42.5793286 C118.24846,0.953473199 88.6399517,0 88.1282621,0 L88.1187864,0 C87.590251,0 56.0455343,0.970348831 30.2062621,46.76554 C33.6006804,48.9815214 40.2905482,52.425205 47.0004203,45.7034299" id="Fill-45" fill="#EEEEEE"></path>
                            <path d="M177.141312,29.4618261 L177.13499,29.4618261 C176.529203,29.4618261 122.281168,29.4618261 110.252857,158.964358 L244.023446,158.964358 C231.995134,29.4618261 177.746046,29.4618261 177.141312,29.4618261" id="Fill-46" fill="#1D8261"></path>
                            <path d="M145.316329,48.4555308 L145.311064,48.4555308 C144.794052,48.4555308 98.4188275,48.4555308 88.1375575,158.964358 L202.489835,158.964358 C192.207512,48.4555308 145.834394,48.4555308 145.316329,48.4555308" id="Fill-47" fill="#96CC9B"></path>
                            <polygon id="Fill-50" fill="#2BB3AF" points="29.2353465 150.546694 34.5214424 150.546694 34.5214424 133.711365 29.2353465 133.711365"></polygon>
                            <polyline id="Fill-51" fill="#1FAD81" points="14.3479745 140.078572 32.2559727 108.890046 50.1639709 140.078572 14.3479745 140.078572"></polyline>
                            <polyline id="Fill-52" fill="#1FAD81" points="16.6134441 128.531263 32.2020329 101.335731 47.7906218 128.531263 16.6134441 128.531263"></polyline>
                            <polyline id="Fill-53" fill="#1FAD81" points="19.5261908 115.688929 32.3099124 93.5655796 45.0936341 115.688929 19.5261908 115.688929"></polyline>
                            <polygon id="Fill-54" fill="#621E20" points="66.130138 129.502532 73.4659445 129.502532 73.4659445 110.508828 66.130138 110.508828"></polygon>
                            <polyline id="Fill-55" fill="#11513D" points="52.105802 119.897761 70.0143248 88.7092346 87.9217985 119.897761 52.105802 119.897761"></polyline>
                            <polyline id="Fill-56" fill="#11513D" points="54.4791512 107.379183 70.0682644 80.1836512 85.6563288 107.379183 54.4791512 107.379183"></polyline>
                            <polyline id="Fill-57" fill="#11513D" points="57.3918979 93.6734983 70.1756195 71.5501491 82.9593411 93.6734983 57.3918979 93.6734983"></polyline>
                        </g>
                        <g id="Group-Copy-2" transform="translate(604.500000, 79.500000) scale(-1, 1) translate(-604.500000, -79.500000) translate(482.000000, 0.000000)">
                            <path d="M143.53038,43.281549 C139.657069,41.1467483 132.804045,39.1647343 125.091104,45.5933718 C114.913138,54.0756749 106.882333,45.5543848 106.882333,45.5543848 C106.882333,45.5543848 97.2832576,36.7254136 85.554914,45.5333107 C75.8263778,52.8407359 67.9839756,45.5238274 67.9839756,45.5238274 C67.9839756,45.5238274 56.5292898,35.9530499 46.9733685,45.5185589 C40.2655938,52.2338034 33.5778172,49.6806828 30.1844599,47.4668544 C17.0246753,70.7736945 5.34580068,105.225543 0,158.964358 L176.167235,158.964358 C170.491993,102.064437 157.675333,66.5030393 143.53038,43.281549" id="Fill-44" fill="#1D8261"></path>
                            <path d="M47.0004203,45.7034299 C56.5593297,36.1275636 68.0175971,45.7034299 68.0175971,45.7034299 C68.0175971,45.7034299 75.8624516,53.0190163 85.5940298,45.7034299 C97.3260407,36.8859123 106.928117,45.7034299 106.928117,45.7034299 C106.928117,45.7034299 114.961434,54.1939822 125.142583,45.7034299 C132.857935,39.2685406 139.713102,40.441397 143.587624,42.5793286 C118.24846,0.953473199 88.6399517,0 88.1282621,0 L88.1187864,0 C87.590251,0 56.0455343,0.970348831 30.2062621,46.76554 C33.6006804,48.9815214 40.2905482,52.425205 47.0004203,45.7034299" id="Fill-45" fill="#EEEEEE"></path>
                            <path d="M177.141312,29.4618261 L177.13499,29.4618261 C176.529203,29.4618261 122.281168,29.4618261 110.252857,158.964358 L244.023446,158.964358 C231.995134,29.4618261 177.746046,29.4618261 177.141312,29.4618261" id="Fill-46" fill="#1D8261"></path>
                            <path d="M145.316329,48.4555308 L145.311064,48.4555308 C144.794052,48.4555308 98.4188275,48.4555308 88.1375575,158.964358 L202.489835,158.964358 C192.207512,48.4555308 145.834394,48.4555308 145.316329,48.4555308" id="Fill-47" fill="#96CC9B"></path>
                            <polygon id="Fill-50" fill="#2BB3AF" points="29.2353465 150.546694 34.5214424 150.546694 34.5214424 133.711365 29.2353465 133.711365"></polygon>
                            <polyline id="Fill-51" fill="#1FAD81" points="14.3479745 140.078572 32.2559727 108.890046 50.1639709 140.078572 14.3479745 140.078572"></polyline>
                            <polyline id="Fill-52" fill="#1FAD81" points="16.6134441 128.531263 32.2020329 101.335731 47.7906218 128.531263 16.6134441 128.531263"></polyline>
                            <polyline id="Fill-53" fill="#1FAD81" points="19.5261908 115.688929 32.3099124 93.5655796 45.0936341 115.688929 19.5261908 115.688929"></polyline>
                            <polygon id="Fill-54" fill="#621E20" points="66.130138 129.502532 73.4659445 129.502532 73.4659445 110.508828 66.130138 110.508828"></polygon>
                            <polyline id="Fill-55" fill="#11513D" points="52.105802 119.897761 70.0143248 88.7092346 87.9217985 119.897761 52.105802 119.897761"></polyline>
                            <polyline id="Fill-56" fill="#11513D" points="54.4791512 107.379183 70.0682644 80.1836512 85.6563288 107.379183 54.4791512 107.379183"></polyline>
                            <polyline id="Fill-57" fill="#11513D" points="57.3918979 93.6734983 70.1756195 71.5501491 82.9593411 93.6734983 57.3918979 93.6734983"></polyline>
                        </g>
                    </g>
                    <polygon id="Fill-153-Copy" fill="#EC9052" points="135.649451 158.714543 140.894245 158.714543 140.894245 137.012029 135.649451 137.012029"></polygon>
                    <polygon id="Fill-153-Copy-2" fill="#EC9052" points="384.538777 158.714543 389.783571 158.714543 389.783571 137.012029 384.538777 137.012029"></polygon>
                    <polygon id="Fill-153-Copy-3" fill="#EC9052" points="583.125758 158.714543 588.370553 158.714543 588.370553 137.012029 583.125758 137.012029"></polygon>
                    <polyline id="Fill-154-Copy" fill="#1D8261" points="123.729464 149.174977 138.331448 100.880919 152.933432 149.174977 123.729464 149.174977"></polyline>
                    <polyline id="Fill-154-Copy-2" fill="#1D8261" points="372.61879 148.578754 387.220774 100.284696 401.822758 148.578754 372.61879 148.578754"></polyline>
                    <polyline id="Fill-154-Copy-3" fill="#1D8261" points="571.205771 148.340264 585.807755 100.046207 600.409739 148.340264 571.205771 148.340264"></polyline>
                </g>
                <g id="Group-2-Copy-2" transform="translate(726.000000, 0.000000)">
                    <g id="Group-4">
                        <g id="Group" transform="translate(0.000000, 0.107919)">
                            <path d="M143.53038,43.281549 C139.657069,41.1467483 132.804045,39.1647343 125.091104,45.5933718 C114.913138,54.0756749 106.882333,45.5543848 106.882333,45.5543848 C106.882333,45.5543848 97.2832576,36.7254136 85.554914,45.5333107 C75.8263778,52.8407359 67.9839756,45.5238274 67.9839756,45.5238274 C67.9839756,45.5238274 56.5292898,35.9530499 46.9733685,45.5185589 C40.2655938,52.2338034 33.5778172,49.6806828 30.1844599,47.4668544 C17.0246753,70.7736945 5.34580068,105.225543 0,158.964358 L176.167235,158.964358 C170.491993,102.064437 157.675333,66.5030393 143.53038,43.281549" id="Fill-44" fill="#1D8261"></path>
                            <path d="M47.0004203,45.7034299 C56.5593297,36.1275636 68.0175971,45.7034299 68.0175971,45.7034299 C68.0175971,45.7034299 75.8624516,53.0190163 85.5940298,45.7034299 C97.3260407,36.8859123 106.928117,45.7034299 106.928117,45.7034299 C106.928117,45.7034299 114.961434,54.1939822 125.142583,45.7034299 C132.857935,39.2685406 139.713102,40.441397 143.587624,42.5793286 C118.24846,0.953473199 88.6399517,0 88.1282621,0 L88.1187864,0 C87.590251,0 56.0455343,0.970348831 30.2062621,46.76554 C33.6006804,48.9815214 40.2905482,52.425205 47.0004203,45.7034299" id="Fill-45" fill="#EEEEEE"></path>
                            <path d="M177.141312,29.4618261 L177.13499,29.4618261 C176.529203,29.4618261 122.281168,29.4618261 110.252857,158.964358 L244.023446,158.964358 C231.995134,29.4618261 177.746046,29.4618261 177.141312,29.4618261" id="Fill-46" fill="#1D8261"></path>
                            <path d="M145.316329,48.4555308 L145.311064,48.4555308 C144.794052,48.4555308 98.4188275,48.4555308 88.1375575,158.964358 L202.489835,158.964358 C192.207512,48.4555308 145.834394,48.4555308 145.316329,48.4555308" id="Fill-47" fill="#96CC9B"></path>
                            <polygon id="Fill-50" fill="#2BB3AF" points="29.2353465 150.546694 34.5214424 150.546694 34.5214424 133.711365 29.2353465 133.711365"></polygon>
                            <polyline id="Fill-51" fill="#1FAD81" points="14.3479745 140.078572 32.2559727 108.890046 50.1639709 140.078572 14.3479745 140.078572"></polyline>
                            <polyline id="Fill-52" fill="#1FAD81" points="16.6134441 128.531263 32.2020329 101.335731 47.7906218 128.531263 16.6134441 128.531263"></polyline>
                            <polyline id="Fill-53" fill="#1FAD81" points="19.5261908 115.688929 32.3099124 93.5655796 45.0936341 115.688929 19.5261908 115.688929"></polyline>
                            <polygon id="Fill-54" fill="#621E20" points="66.130138 129.502532 73.4659445 129.502532 73.4659445 110.508828 66.130138 110.508828"></polygon>
                            <polyline id="Fill-55" fill="#11513D" points="52.105802 119.897761 70.0143248 88.7092346 87.9217985 119.897761 52.105802 119.897761"></polyline>
                            <polyline id="Fill-56" fill="#11513D" points="54.4791512 107.379183 70.0682644 80.1836512 85.6563288 107.379183 54.4791512 107.379183"></polyline>
                            <polyline id="Fill-57" fill="#11513D" points="57.3918979 93.6734983 70.1756195 71.5501491 82.9593411 93.6734983 57.3918979 93.6734983"></polyline>
                        </g>
                        <g id="Group-Copy" transform="translate(242.836771, 0.000000)">
                            <path d="M143.53038,43.281549 C139.657069,41.1467483 132.804045,39.1647343 125.091104,45.5933718 C114.913138,54.0756749 106.882333,45.5543848 106.882333,45.5543848 C106.882333,45.5543848 97.2832576,36.7254136 85.554914,45.5333107 C75.8263778,52.8407359 67.9839756,45.5238274 67.9839756,45.5238274 C67.9839756,45.5238274 56.5292898,35.9530499 46.9733685,45.5185589 C40.2655938,52.2338034 33.5778172,49.6806828 30.1844599,47.4668544 C17.0246753,70.7736945 5.34580068,105.225543 0,158.964358 L176.167235,158.964358 C170.491993,102.064437 157.675333,66.5030393 143.53038,43.281549" id="Fill-44" fill="#1D8261"></path>
                            <path d="M47.0004203,45.7034299 C56.5593297,36.1275636 68.0175971,45.7034299 68.0175971,45.7034299 C68.0175971,45.7034299 75.8624516,53.0190163 85.5940298,45.7034299 C97.3260407,36.8859123 106.928117,45.7034299 106.928117,45.7034299 C106.928117,45.7034299 114.961434,54.1939822 125.142583,45.7034299 C132.857935,39.2685406 139.713102,40.441397 143.587624,42.5793286 C118.24846,0.953473199 88.6399517,0 88.1282621,0 L88.1187864,0 C87.590251,0 56.0455343,0.970348831 30.2062621,46.76554 C33.6006804,48.9815214 40.2905482,52.425205 47.0004203,45.7034299" id="Fill-45" fill="#EEEEEE"></path>
                            <path d="M177.141312,29.4618261 L177.13499,29.4618261 C176.529203,29.4618261 122.281168,29.4618261 110.252857,158.964358 L244.023446,158.964358 C231.995134,29.4618261 177.746046,29.4618261 177.141312,29.4618261" id="Fill-46" fill="#1D8261"></path>
                            <path d="M145.316329,48.4555308 L145.311064,48.4555308 C144.794052,48.4555308 98.4188275,48.4555308 88.1375575,158.964358 L202.489835,158.964358 C192.207512,48.4555308 145.834394,48.4555308 145.316329,48.4555308" id="Fill-47" fill="#96CC9B"></path>
                            <polygon id="Fill-50" fill="#2BB3AF" points="29.2353465 150.546694 34.5214424 150.546694 34.5214424 133.711365 29.2353465 133.711365"></polygon>
                            <polyline id="Fill-51" fill="#1FAD81" points="14.3479745 140.078572 32.2559727 108.890046 50.1639709 140.078572 14.3479745 140.078572"></polyline>
                            <polyline id="Fill-52" fill="#1FAD81" points="16.6134441 128.531263 32.2020329 101.335731 47.7906218 128.531263 16.6134441 128.531263"></polyline>
                            <polyline id="Fill-53" fill="#1FAD81" points="19.5261908 115.688929 32.3099124 93.5655796 45.0936341 115.688929 19.5261908 115.688929"></polyline>
                            <polygon id="Fill-54" fill="#621E20" points="66.130138 129.502532 73.4659445 129.502532 73.4659445 110.508828 66.130138 110.508828"></polygon>
                            <polyline id="Fill-55" fill="#11513D" points="52.105802 119.897761 70.0143248 88.7092346 87.9217985 119.897761 52.105802 119.897761"></polyline>
                            <polyline id="Fill-56" fill="#11513D" points="54.4791512 107.379183 70.0682644 80.1836512 85.6563288 107.379183 54.4791512 107.379183"></polyline>
                            <polyline id="Fill-57" fill="#11513D" points="57.3918979 93.6734983 70.1756195 71.5501491 82.9593411 93.6734983 57.3918979 93.6734983"></polyline>
                        </g>
                        <g id="Group-Copy-2" transform="translate(604.500000, 79.500000) scale(-1, 1) translate(-604.500000, -79.500000) translate(482.000000, 0.000000)">
                            <path d="M143.53038,43.281549 C139.657069,41.1467483 132.804045,39.1647343 125.091104,45.5933718 C114.913138,54.0756749 106.882333,45.5543848 106.882333,45.5543848 C106.882333,45.5543848 97.2832576,36.7254136 85.554914,45.5333107 C75.8263778,52.8407359 67.9839756,45.5238274 67.9839756,45.5238274 C67.9839756,45.5238274 56.5292898,35.9530499 46.9733685,45.5185589 C40.2655938,52.2338034 33.5778172,49.6806828 30.1844599,47.4668544 C17.0246753,70.7736945 5.34580068,105.225543 0,158.964358 L176.167235,158.964358 C170.491993,102.064437 157.675333,66.5030393 143.53038,43.281549" id="Fill-44" fill="#1D8261"></path>
                            <path d="M47.0004203,45.7034299 C56.5593297,36.1275636 68.0175971,45.7034299 68.0175971,45.7034299 C68.0175971,45.7034299 75.8624516,53.0190163 85.5940298,45.7034299 C97.3260407,36.8859123 106.928117,45.7034299 106.928117,45.7034299 C106.928117,45.7034299 114.961434,54.1939822 125.142583,45.7034299 C132.857935,39.2685406 139.713102,40.441397 143.587624,42.5793286 C118.24846,0.953473199 88.6399517,0 88.1282621,0 L88.1187864,0 C87.590251,0 56.0455343,0.970348831 30.2062621,46.76554 C33.6006804,48.9815214 40.2905482,52.425205 47.0004203,45.7034299" id="Fill-45" fill="#EEEEEE"></path>
                            <path d="M177.141312,29.4618261 L177.13499,29.4618261 C176.529203,29.4618261 122.281168,29.4618261 110.252857,158.964358 L244.023446,158.964358 C231.995134,29.4618261 177.746046,29.4618261 177.141312,29.4618261" id="Fill-46" fill="#1D8261"></path>
                            <path d="M145.316329,48.4555308 L145.311064,48.4555308 C144.794052,48.4555308 98.4188275,48.4555308 88.1375575,158.964358 L202.489835,158.964358 C192.207512,48.4555308 145.834394,48.4555308 145.316329,48.4555308" id="Fill-47" fill="#96CC9B"></path>
                            <polygon id="Fill-50" fill="#2BB3AF" points="29.2353465 150.546694 34.5214424 150.546694 34.5214424 133.711365 29.2353465 133.711365"></polygon>
                            <polyline id="Fill-51" fill="#1FAD81" points="14.3479745 140.078572 32.2559727 108.890046 50.1639709 140.078572 14.3479745 140.078572"></polyline>
                            <polyline id="Fill-52" fill="#1FAD81" points="16.6134441 128.531263 32.2020329 101.335731 47.7906218 128.531263 16.6134441 128.531263"></polyline>
                            <polyline id="Fill-53" fill="#1FAD81" points="19.5261908 115.688929 32.3099124 93.5655796 45.0936341 115.688929 19.5261908 115.688929"></polyline>
                            <polygon id="Fill-54" fill="#621E20" points="66.130138 129.502532 73.4659445 129.502532 73.4659445 110.508828 66.130138 110.508828"></polygon>
                            <polyline id="Fill-55" fill="#11513D" points="52.105802 119.897761 70.0143248 88.7092346 87.9217985 119.897761 52.105802 119.897761"></polyline>
                            <polyline id="Fill-56" fill="#11513D" points="54.4791512 107.379183 70.0682644 80.1836512 85.6563288 107.379183 54.4791512 107.379183"></polyline>
                            <polyline id="Fill-57" fill="#11513D" points="57.3918979 93.6734983 70.1756195 71.5501491 82.9593411 93.6734983 57.3918979 93.6734983"></polyline>
                        </g>
                    </g>
                    <polygon id="Fill-153-Copy" fill="#EC9052" points="135.649451 158.714543 140.894245 158.714543 140.894245 137.012029 135.649451 137.012029"></polygon>
                    <polygon id="Fill-153-Copy-2" fill="#EC9052" points="384.538777 158.714543 389.783571 158.714543 389.783571 137.012029 384.538777 137.012029"></polygon>
                    <polygon id="Fill-153-Copy-3" fill="#EC9052" points="583.125758 158.714543 588.370553 158.714543 588.370553 137.012029 583.125758 137.012029"></polygon>
                    <polyline id="Fill-154-Copy" fill="#1D8261" points="123.729464 149.174977 138.331448 100.880919 152.933432 149.174977 123.729464 149.174977"></polyline>
                    <polyline id="Fill-154-Copy-2" fill="#1D8261" points="372.61879 148.578754 387.220774 100.284696 401.822758 148.578754 372.61879 148.578754"></polyline>
                    <polyline id="Fill-154-Copy-3" fill="#1D8261" points="571.205771 148.340264 585.807755 100.046207 600.409739 148.340264 571.205771 148.340264"></polyline>
                </g>
            </g>
        </g>
    </g>
</svg>