<?xml version="1.0" encoding="UTF-8"?>
<svg width="436px" height="111px" viewBox="0 0 436 111" version="1.1" xmlns="http://www.w3.org/2000/svg" xmlns:xlink="http://www.w3.org/1999/xlink">
    <!-- Generator: Sketch 43.2 (39069) - http://www.bohemiancoding.com/sketch -->
    <title>Group 9</title>
    <desc>Created with Sketch.</desc>
    <defs></defs>
    <g id="Page-1" stroke="none" stroke-width="1" fill="none" fill-rule="evenodd">
        <g id="Artboard-Copy" transform="translate(-3141.000000, -6172.000000)">
            <g id="Group-9" transform="translate(3141.000000, 6172.000000)">
                <path d="M219.442805,87.2665671 C219.717373,87.2665671 219.920148,87.2876239 220.152517,87.3270379 L220.21883,86.9145408 C220.21883,86.9145408 219.576527,86.7207103 218.733094,86.7882 L218.666781,86.5646741 C218.928744,86.5096025 219.126039,86.2795975 219.126039,86.0053193 C219.126039,85.6910872 218.86572,85.4373259 218.546213,85.4373259 C218.226706,85.4373259 217.967483,85.6910872 217.967483,86.0053193 C217.967483,86.2795975 218.164229,86.5096025 218.425644,86.5646741 L218.499081,86.814656 C217.603585,86.9355976 216.890585,87.2795251 216.890585,87.2795251 L217.017182,87.6601671 C217.558645,87.4830741 218.028863,87.3745507 218.455238,87.3291976 C218.872844,87.2860042 219.186871,87.2665671 219.442805,87.2665671" id="Fill-29-Copy" fill="#000105"></path>
                <path d="M435.95918,3.12130801 C435.95918,3.12130801 429.944578,-3.00818045 422.698392,3.03450043 C416.505591,8.20037019 411.612495,2.99191559 411.612495,2.99191559 C411.612495,2.99191559 405.770097,-2.39397589 398.63399,2.96953124 C392.713664,7.41964796 387.939911,2.95861205 387.939911,2.95861205 C387.939911,2.95861205 380.968924,-2.89844257 375.154863,2.92694639 C369.340258,8.75178939 363.544725,2.89473478 363.544725,2.89473478 L363.43737,2.89473478 C363.43737,2.89473478 357.434212,-3.122286 350.188571,2.9214868 C343.995226,8.08626464 339.108668,2.93513579 339.108668,2.93513579 C339.108668,2.93513579 333.26845,-2.42291175 326.131798,2.9416873 C320.212018,7.39125806 315.439899,2.9444171 315.439899,2.9444171 C315.439899,2.9444171 308.470002,-2.906086 302.655396,2.92039488 C296.840791,8.74523788 291.045804,2.89473478 291.045804,2.89473478 L290.938994,2.89473478 C290.938994,2.89473478 284.935291,-3.122286 277.689649,2.9214868 C271.496304,8.08626464 266.609202,2.93513579 266.609202,2.93513579 C266.609202,2.93513579 260.769528,-2.42291175 253.632877,2.9416873 C247.713096,7.39125806 242.940978,2.9444171 242.940978,2.9444171 C242.940978,2.9444171 235.97108,-2.906086 230.156475,2.92039488 C224.341869,8.74523788 218.547427,2.89473478 218.547427,2.89473478 L218.440072,2.89473478 C218.440072,2.89473478 212.436914,-3.122286 205.191272,2.9214868 C198.997927,8.08626464 194.110825,2.93513579 194.110825,2.93513579 C194.110825,2.93513579 188.270062,-2.42291175 181.133955,2.9416873 C175.214174,7.39125806 170.442056,2.9444171 170.442056,2.9444171 C170.442056,2.9444171 163.472704,-2.906086 157.657553,2.92039488 C151.842948,8.74523788 146.04796,2.89473478 146.04796,2.89473478 L145.941695,2.89473478 C145.941695,2.89473478 139.937992,-3.122286 132.691806,2.9214868 C126.498461,8.08626464 121.612448,2.93513579 121.612448,2.93513579 C121.612448,2.93513579 115.771685,-2.42291175 108.635578,2.9416873 C102.715252,7.39125806 97.9431343,2.9444171 97.9431343,2.9444171 C97.9431343,2.9444171 90.9732369,-2.906086 85.1586314,2.92039488 C79.3445707,8.74523788 73.5495833,2.89473478 73.5495833,2.89473478 L73.4422284,2.89473478 C73.4422284,2.89473478 67.4390705,-3.122286 60.1934289,2.9214868 C54.0000838,8.08626464 49.1129814,2.93513579 49.1129814,2.93513579 C49.1129814,2.93513579 43.2733082,-2.42291175 36.1361115,2.9416873 C30.2163308,7.39125806 25.4442126,2.9444171 25.4442126,2.9444171 C25.4442126,2.9444171 18.4939334,-2.8776961 12.6798727,2.94769286 C6.86526719,8.7719899 0,2.94823882 0,2.94823882 L0,110.994736 L435.936837,110.994736 L435.95918,3.12130801" id="Fill-82-Copy" fill="#2BB3AF"></path>
                <path d="M48.4444444,12.0835655 C61.1179802,12.0835655 71.3723494,22.3732386 71.3723494,35.0893142 L63.261635,38.2019499 L50.4851908,35.1002415 C52.7290317,27.2380636 54.694094,18.2367168 48.4520673,12.1119764" id="Fill-196-Copy" fill="#0E4240"></path>
                <path d="M37.9050042,33.5635766 C44.5404318,39.0933377 49.7656198,33.4631942 49.7656198,33.4631942 C49.7656198,33.4631942 56.0179722,27.6710203 63.6642166,33.4135485 C70.0059351,38.1784394 75.1172359,33.3884529 75.1172359,33.3884529 C75.1172359,33.3884529 82.6212576,27.1391027 88.8507236,33.3759051 C95.0801896,39.6132531 101.326548,33.3633573 101.326548,33.3633573 L101.326548,52.6504178 L37.976933,52.6504178 L37.9050042,33.5635766" id="Fill-197-Copy" fill="#2BB3AF"></path>
                <path d="M97.6284987,32.4127999 C97.6284987,32.4127999 92.077148,37.9362982 86.5083401,32.4127999 C80.9389867,26.8898426 74.263291,32.4127999 74.263291,32.4127999 C74.263291,32.4127999 69.6928098,36.6323869 64.0219871,32.4127999 C57.1869956,27.3270046 51.5925477,32.4127999 51.5925477,32.4127999 C51.5925477,32.4127999 46.9124142,37.3108536 40.9802809,32.4127999 C34.0400014,26.6831645 28.2900763,32.4127999 28.2900763,32.4127999" id="Stroke-198-Copy" stroke="#FFFFFF" stroke-width="1.8" stroke-linecap="round" stroke-linejoin="round"></path>
                <path d="M406.045802,77.3878728 C400.419179,82.0815431 395.986792,77.3027912 395.986792,77.3027912 C395.986792,77.3027912 390.685127,72.3865996 384.200658,77.2602503 C378.822245,81.3049005 374.487835,77.2389799 374.487835,77.2389799 C374.487835,77.2389799 368.02024,71.9355579 362.737627,77.2286174 C357.455014,82.5227677 352.054283,77.2177095 352.054283,77.2177095 L352.054283,93.5877437 L405.984294,93.5877437 L406.045802,77.3878728" id="Fill-199-Copy" fill="#2BB3AF"></path>
                <path d="M355.382528,76.492188 C355.382528,76.492188 360.089367,81.1977873 364.811463,76.492188 C369.534649,71.7871316 375.195607,76.492188 375.195607,76.492188 C375.195607,76.492188 379.071475,80.0865319 383.880755,76.492188 C389.676848,72.1600834 394.420196,76.492188 394.420196,76.492188 C394.420196,76.492188 398.389786,80.6646887 403.419751,76.492188 C409.305752,71.6117845 414.18151,76.492188 414.18151,76.492188" id="Stroke-200-Copy" stroke="#FFFFFF" stroke-width="1.8" stroke-linecap="round" stroke-linejoin="round"></path>
                <polyline id="Fill-201-Copy" fill="#A1BBC0" points="379.486429 60.6155989 375.906701 55.0584958 380.714165 56.1319832 379.486429 60.6155989"></polyline>
                <path d="M368.309891,49.8353061 C366.004628,46.4433219 364.482511,42.3447875 366.474734,38.6103983 C368.559124,34.7026325 372.866426,33.1503962 377.312251,33.9678204 C387.074306,35.4907077 394.656532,42.6268641 397.621688,51.4581974 C398.081977,52.8299917 398.427194,54.2496139 398.649703,55.7045637 C397.315192,56.3344804 395.940869,56.842653 394.543641,57.2301685 C385.359674,59.7688576 375.037529,57.3818051 368.309891,49.8353061" id="Fill-202-Copy" fill="#A1BBC0"></path>
                <polyline id="Fill-203-Copy" fill="#A1BBC0" points="406.600509 53.3913649 397.725191 55.3280299 400.864505 63.9498607 406.600509 53.3913649"></polyline>
                <polyline id="Fill-204-Copy" fill="#A1BBC0" points="395.321459 37.4978206 385.521628 36.7200557 390.426142 42.4623955 395.321459 37.4978206"></polyline>
                <path d="M380.893322,38.9428969 C381.942722,44.2309334 378.554736,49.3668949 373.318066,50.4275766" id="Stroke-205-Copy" stroke="#809698" stroke-width="1.8" stroke-linecap="round" stroke-linejoin="round"></path>
                <path d="M367.495517,43.9799227 C367.209133,44.7455423 367.596812,45.6004223 368.361032,45.8873305 C369.126313,46.1742386 369.9791,45.7863813 370.264954,45.0202303 C370.551868,44.2540793 370.164719,43.3997306 369.399969,43.1128225 C368.635218,42.825383 367.782431,43.214303 367.495517,43.9799227" id="Fill-206-Copy" fill="#0E4240"></path>
                <path d="M371.22935,38.042562 C370.834751,39.095992 371.367993,40.2701497 372.419014,40.6649188 C373.470567,41.0602221 374.642633,40.5260284 375.036699,39.4731327 C375.431832,38.4191686 374.89859,37.2450109 373.847036,36.8502418 C372.794949,36.4554726 371.622883,36.9885979 371.22935,38.042562" id="Fill-207-Copy" fill="#FFFFFF"></path>
                <path d="M371.719272,38.3072043 C371.521451,38.8350904 371.788056,39.4217493 372.314333,39.6183709 C372.840077,39.8165953 373.426073,39.5494465 373.622827,39.0231632 C373.820115,38.4963457 373.55351,37.9086182 373.027233,37.7109281 C372.502556,37.5143065 371.916026,37.7809211 371.719272,38.3072043" id="Fill-208-Copy" fill="#0E4240"></path>
                <path d="M387.031361,41.1657382 C388.283406,43.9321017 387.073896,47.1901045 384.329323,48.4502392 M384.380037,48.420576 C384.644515,51.4495134 382.424536,54.1148025 379.419847,54.3795736 M391.987189,46.230996 C392.846061,48.128339 392.016091,50.3640618 390.132571,51.229237 M390.168016,51.2094616 C390.349061,53.2864315 388.82654,55.1151099 386.763611,55.296934 M395.6179,51.5840962 C396.021433,53.6105289 394.719765,55.5787339 392.709187,55.9846797" id="Stroke-209-Copy" stroke="#809698" stroke-width="1.2" stroke-linecap="round" stroke-linejoin="round"></path>
                <path d="M106.688719,80.6211699 C106.688719,68.2424832 116.622608,58.2075209 128.876743,58.2075209 C141.130877,58.2075209 151.06531,68.2424832 151.06531,80.6211699" id="Fill-210-Copy" fill="#A1BBC0"></path>
                <path d="M96.3341815,79.4595222 C96.3341815,79.4595222 101.559248,84.573926 106.801198,79.4595222 C112.044239,74.3456497 118.328697,79.4595222 118.328697,79.4595222 C118.328697,79.4595222 122.63054,83.3671924 127.968898,79.4595222 C134.403142,74.7505511 139.669059,79.4595222 139.669059,79.4595222 C139.669059,79.4595222 144.074934,83.9952677 149.658396,79.4595222 C156.191771,74.1543577 161.60475,79.4595222 161.60475,79.4595222" id="Stroke-212-Copy" stroke="#FFFFFF" stroke-width="1.8" stroke-linecap="round" stroke-linejoin="round"></path>
                <path d="M128.315749,60.2451253 L128.315749,32.9367042 M128.135783,33.1988651 C128.135783,27.260922 132.933236,22.4568245 138.861747,22.4568245 M128.323929,33.1988651 C128.323929,27.260922 123.526476,22.4568245 117.597964,22.4568245" id="Stroke-213-Copy" stroke="#0E4240" stroke-width="2.1" stroke-linecap="round" stroke-linejoin="round"></path>
                <path d="M113.899915,68.9512535 C116.045627,71.1743779 119.519013,71.1738115 121.665818,68.9512535" id="Stroke-214-Copy" stroke="#0E4240" stroke-width="1.2" stroke-linecap="round" stroke-linejoin="round"></path>
                <polyline id="Fill-215-Copy" fill="#A1BBC0" points="178.245971 80.9916435 195.626802 65.8022284 195.626802 80.9916435 178.245971 80.9916435"></polyline>
                <path d="M178.430874,78.7164691 C184.848914,73.8328258 190.101125,78.7164691 190.101125,78.7164691 C190.101125,78.7164691 194.494989,83.4188286 200.064461,78.7164691" id="Stroke-217-Copy" stroke="#FFFFFF" stroke-width="1.8" stroke-linecap="round" stroke-linejoin="round"></path>
                <path d="M182.758711,37.0952081 C188.554693,32.7443722 193.29795,37.0952081 193.29795,37.0952081 C193.29795,37.0952081 197.267465,41.2857502 202.297334,37.0952081 C208.183223,32.1937024 213.058888,37.0952081 213.058888,37.0952081 M255.267176,58.0071378 C261.063158,53.6563018 265.806415,58.0071378 265.806415,58.0071378 C265.806415,58.0071378 269.77593,62.1976798 274.805799,58.0071378 C280.691687,53.1056321 285.567353,58.0071378 285.567353,58.0071378 M338.741306,29.6911539 C338.741306,29.6911539 334.772336,25.5006119 329.742467,29.6911539 C323.856579,34.5926596 318.980913,29.6911539 318.980913,29.6911539 M63.0275683,76.0346449 C63.0275683,76.0346449 59.0585982,71.8441029 54.0287296,76.0346449 C48.1428406,80.9361506 43.2671756,76.0346449 43.2671756,76.0346449" id="Stroke-230-Copy" stroke="#FFFFFF" stroke-width="1.8" stroke-linecap="round" stroke-linejoin="round"></path>
            </g>
        </g>
    </g>
</svg>