<?xml version="1.0" encoding="UTF-8"?>
<svg width="42px" height="43px" viewBox="0 0 42 43" version="1.1" xmlns="http://www.w3.org/2000/svg" xmlns:xlink="http://www.w3.org/1999/xlink">
    <!-- Generator: Sketch 43.2 (39069) - http://www.bohemiancoding.com/sketch -->
    <title>Group Copy</title>
    <desc>Created with Sketch.</desc>
    <defs></defs>
    <g id="Page-3" stroke="none" stroke-width="1" fill="none" fill-rule="evenodd">
        <g id="Group-Copy">
            <path d="M37,42 C37,42.5522212 29.6126188,43 20.5,43 C11.3873812,43 4,42.5522212 4,42 C4,41.4477788 11.3873812,41 20.5,41 C29.6126188,41 37,41.4477788 37,42" id="Fill-96" fill="#353842"></path>
            <path d="M41,21.5 C41,32.8217588 32.0456183,42 21,42 C9.95438168,42 1,32.8217588 1,21.5 C1,10.1782412 9.95438168,1 21,1 C32.0456183,1 41,10.1782412 41,21.5" id="Fill-98" fill="#FEFEFE"></path>
            <path d="M41,21 C41,32.0456183 32.0456183,41 21,41 C9.95438168,41 1,32.0456183 1,21 C1,26.8191145 9.95438168,36.5783817 21,36.5783817 C32.0456183,36.5783817 41,27.0497099 41,21" id="Fill-100" fill="#E3D7E8"></path>
            <path d="M21,1.48454483 C10.2390928,1.48454483 1.48453608,10.2391531 1.48453608,21.0001237 C1.48453608,31.7610943 10.2390928,40.5154552 21,40.5154552 C31.7609072,40.5154552 40.5154639,31.7610943 40.5154639,21.0001237 C40.5154639,10.2391531 31.7609072,1.48454483 21,1.48454483 M21,42 C9.42061856,42 0,32.5795734 0,21.0001237 C0,9.42067405 9.42061856,0 21,0 C32.5793814,0 42,9.42067405 42,21.0001237 C42,32.5795734 32.5793814,42 21,42" id="Fill-102" fill="#353842"></path>
            <path d="M17.072715,28.9999324 C16.925118,28.9999324 16.7751365,28.9701378 16.6318315,28.9070569 C16.0917553,28.6689325 15.8514035,28.0485984 16.095332,27.5213727 C16.2367294,27.2157447 17.5465037,25 19.991511,25 C22.4319879,25 23.7589302,27.2106237 23.9022351,27.5157862 C24.1490249,28.0418481 23.9124883,28.6635787 23.3738427,28.9044964 C22.835674,29.1451814 22.2002201,28.9152039 21.9524765,28.3914697 C21.7335847,27.9336097 20.9040372,27.0949367 19.991511,27.0949367 C19.0537098,27.0949367 18.2224931,28.0127517 18.0512902,28.38309 C17.8722185,28.7706533 17.4816468,28.9999324 17.072715,28.9999324" id="Fill-104" fill="#353842"></path>
            <path d="M28,7 C29.1605158,7.42319668 30.0363717,7.840685 31,9" id="Stroke-106" stroke="#E3D7E8" stroke-width="7" stroke-linecap="round" stroke-linejoin="round"></path>
            <path d="M23,6.03085707 C23,6.03085707 23.8074472,5.92385707 25,6.10835707" id="Stroke-108" stroke="#E3D7E8" stroke-width="7" stroke-linecap="round" stroke-linejoin="round"></path>
            <path d="M5.5544866,18 C5.27604939,18 5.03602496,17.7692157 5.00360723,17.4562712 C4.96896911,17.1197822 5.18767777,16.8161574 5.49231561,16.7776524 C6.88827635,16.6018051 7.88412236,16.0024035 8.45098855,14.9966155 C8.85909669,14.2731152 8.8897381,13.6001373 8.88996014,13.5932702 C8.89972987,13.2616864 9.14619343,13 9.44439214,13 C9.45060924,13 9.45682634,13 9.46282139,13.0002453 C9.76923555,13.0112817 10.009482,13.2945504 9.99971229,13.6330014 C9.99838005,13.6715064 9.8385118,17.4643645 5.61798982,17.9960759 C5.59667406,17.9987737 5.57535829,18 5.5544866,18" id="Fill-110" fill="#353842"></path>
            <path d="M36.4455134,18 C36.7239506,18 36.963975,17.7692157 36.9963928,17.4562712 C37.0310309,17.1197822 36.8123222,16.8161574 36.5076844,16.7776524 C35.1117237,16.6018051 34.1158776,16.0024035 33.5490114,14.9966155 C33.1409033,14.2731152 33.1102619,13.6001373 33.1100399,13.5932702 C33.1002701,13.2616864 32.8538066,13 32.5556079,13 C32.5493908,13 32.5431737,13 32.5371786,13.0002453 C32.2307644,13.0112817 31.990518,13.2945504 32.0002877,13.6330014 C32.0016199,13.6715064 32.1614882,17.4643645 36.3820102,17.9960759 C36.4033259,17.9987737 36.4246417,18 36.4455134,18" id="Fill-112" fill="#353842"></path>
            <path d="M31.2758964,20.8453973 C31.3742212,21.0119803 31.5610872,21.046121 31.7044164,20.937224 C31.9350638,20.7624 32.2072914,20.6605666 32.5000644,20.6605666 C32.7925929,20.6605666 33.0650651,20.7624 33.2954679,20.937224 C33.4392863,21.046121 33.6263969,21.0113917 33.7247217,20.8445143 C33.9541462,20.455428 34.0588303,19.95303 33.9666202,19.41914 C33.8482391,18.735443 33.3898793,18.1824225 32.8219436,18.0402677 C31.8528819,17.7980453 31,18.6815831 31,19.8049888 C31,20.1928978 31.1024828,20.5516695 31.2758964,20.8453973" id="Fill-114" fill="#353842"></path>
            <path d="M8.27589641,20.8453973 C8.3742212,21.0119803 8.56108721,21.046121 8.70441637,20.937224 C8.93506382,20.7624 9.20729139,20.6605666 9.50006445,20.6605666 C9.79259292,20.6605666 10.0650651,20.7624 10.2954679,20.937224 C10.4392863,21.046121 10.6263969,21.0113917 10.7247217,20.8445143 C10.9541462,20.455428 11.0588303,19.95303 10.9666202,19.41914 C10.8482391,18.735443 10.3898793,18.1824225 9.8219436,18.0402677 C8.85288191,17.7980453 8,18.6815831 8,19.8049888 C8,20.1928978 8.1024828,20.5516695 8.27589641,20.8453973" id="Fill-116" fill="#353842"></path>
            <path d="M10,24.6035691 C10,25.4215046 9.24375454,26.0754555 8.3459301,25.9929662 C7.49111361,25.9147008 6.88633094,25.1417369 7.01802611,24.3523744 C7.12327539,23.7202882 7.62147312,23.1257196 8.37291024,22.0600679 C8.43087748,21.9778271 8.56203839,21.9805602 8.61680007,22.0650371 C9.39922429,23.2668458 10,23.8688682 10,24.6035691" id="Fill-118" fill="#A5DEF8"></path>
        </g>
    </g>
</svg>