<?xml version="1.0" encoding="UTF-8"?>
<svg width="1486px" height="1747px" viewBox="0 0 1486 1747" version="1.1" xmlns="http://www.w3.org/2000/svg" xmlns:xlink="http://www.w3.org/1999/xlink">
    <!-- Generator: Sketch 43.2 (39069) - http://www.bohemiancoding.com/sketch -->
    <title>Group 2</title>
    <desc>Created with Sketch.</desc>
    <defs></defs>
    <style type="text/css">
        .river {
            stroke-width: 8rem;
            stroke-dasharray: 100;
            animation: dash 60s;
            animation-iteration-count: infinite;
        }

        @keyframes dash {
          0% {
            stroke-width: 5rem;
          }
          50% {
            stroke-width: 2rem;
          }
          100% {
            stroke-dashoffset: 10000;
            stroke-width: 5rem;
          }
        }

    </style>
    <g id="Page-1" stroke="none" stroke-width="1" fill="none" fill-rule="evenodd" stroke-linecap="round">
        <g id="Artboard-3" transform="translate(-1692.000000, -4176.000000)" stroke="#2B80B3" stroke-width="120">
            <g id="Group-2" transform="translate(1752.000000, 4236.000000)">
                <path class="river" d="M117.284724,0.962530148 C42.3402795,54.7877616 0.118057244,127.94459 0.118057244,204.133826 C0.118057244,280.323063 42.3402795,353.38513 117.284724,407.305123 C192.361111,461.130354 234.451391,534.287183 234.451391,610.476419 C234.451391,686.665655 192.361111,759.727722 117.284724,813.647715 C42.3402795,867.472947 0.118057244,940.629776 0.118057244,1016.81901 C0.118057244,1093.00825 42.3402795,1166.07031 117.284724,1219.99031 C192.361111,1273.81554 234.451391,1346.97237 234.451391,1423.1616 C234.451391,1499.35084 192.361111,1572.41291 117.284724,1626.3329" id="Shape" transform="translate(117.284724, 813.647715) scale(-1, 1) rotate(-180.000000) translate(-117.284724, -813.647715) "></path>
                <path class="river" d="M683.062502,0.962530148 C608.118057,54.7877616 565.895835,127.94459 565.895835,204.133826 C565.895835,280.323063 608.118057,353.38513 683.062502,407.305123 C758.138889,461.130354 800.229168,534.287183 800.229168,610.476419 C800.229168,686.665655 758.138889,759.727722 683.062502,813.647715 C608.118057,867.472947 565.895835,940.629776 565.895835,1016.81901 C565.895835,1093.00825 608.118057,1166.07031 683.062502,1219.99031 C758.138889,1273.81554 800.229168,1346.97237 800.229168,1423.1616 C800.229168,1499.35084 758.138889,1572.41291 683.062502,1626.3329" id="Shape" transform="translate(683.062502, 813.647715) scale(-1, 1) rotate(-180.000000) translate(-683.062502, -813.647715) "></path>
                <path class="river" d="M1248.84028,0.962530148 C1173.89584,54.7877616 1131.67361,127.94459 1131.67361,204.133826 C1131.67361,280.323063 1173.89584,353.38513 1248.84028,407.305123 C1323.91667,461.130354 1366.00695,534.287183 1366.00695,610.476419 C1366.00695,686.665655 1323.91667,759.727722 1248.84028,813.647715 C1173.89584,867.472947 1131.67361,940.629776 1131.67361,1016.81901 C1131.67361,1093.00825 1173.89584,1166.07031 1248.84028,1219.99031 C1323.91667,1273.81554 1366.00695,1346.97237 1366.00695,1423.1616 C1366.00695,1499.35084 1323.91667,1572.41291 1248.84028,1626.3329" id="Shape" transform="translate(1248.840279, 813.647715) scale(-1, 1) rotate(-180.000000) translate(-1248.840279, -813.647715) "></path>
            </g>
        </g>
    </g>
</svg>
