<?xml version="1.0" encoding="UTF-8"?>
<svg width="64px" height="64px" viewBox="0 0 64 64" version="1.1" xmlns="http://www.w3.org/2000/svg" xmlns:xlink="http://www.w3.org/1999/xlink">
    <!-- Generator: Sketch 43.2 (39069) - http://www.bohemiancoding.com/sketch -->
    <title>noun_724892_cc</title>
    <desc>Created with Sketch.</desc>
    <defs></defs>
    <g id="Page-1" stroke="none" stroke-width="1" fill="none" fill-rule="evenodd">
        <g id="noun_724892_cc" fill-rule="nonzero" fill="#000000">
            <path d="M63.414,18 L58.914,13.5 L63.707,8.707 L62.293,7.293 L57.5,12.086 L51.707,6.293 C51.316,5.902 50.684,5.902 50.293,6.293 L47,9.586 L40.207,2.793 C39.816,2.402 39.184,2.402 38.793,2.793 L28.5,13.086 L23.207,7.793 C22.816,7.402 22.184,7.402 21.793,7.793 L18.5,11.086 L12.207,4.793 C11.816,4.402 11.184,4.402 10.793,4.793 L5,10.586 L1.707,7.293 C1.52,7.106 1.265,7 1,7 L0,7 L0,9 L0.586,9 L9.586,18 L0,18 L0,20 L26.886,20 C24.849,21.498 22.789,23.129 20.868,25.026 C18.776,27.093 15.275,30.552 15.524,34.066 C15.63,35.567 16.499,37.065 17.907,38.176 C19.884,39.737 22.205,40.582 24.45,41.4 C27.06,42.35 29.526,43.248 31.395,45.178 C32.381,46.196 32.729,47.146 32.459,48.082 C31.782,50.432 27.327,54.128 9.947,58.39 L9.214,58.571 C6.405,59.278 3.113,60 0,60 L0,62 C3.331,62 6.773,61.248 9.701,60.512 L10.423,60.334 C25.33,56.679 33.167,52.853 34.381,48.637 C34.86,46.975 34.339,45.343 32.832,43.787 C30.643,41.527 27.842,40.507 25.134,39.521 C22.941,38.723 20.87,37.968 19.146,36.607 C18.178,35.843 17.585,34.865 17.519,33.924 C17.335,31.327 20.427,28.273 22.32,26.402 C24.774,23.978 27.565,21.943 30.213,20.066 L30.165,20 L31.729,20 C31.704,20.029 31.681,20.056 31.656,20.086 C29.712,22.354 27.291,25.177 27.82,28.04 C28.109,29.604 29.331,30.982 31.26,31.92 C32.689,32.614 34.207,33.005 35.676,33.381 C36.635,33.627 37.542,33.86 38.426,34.171 C41.233,35.157 43.793,36.988 45.635,39.326 C47.082,41.163 47.959,43.151 48.171,45.076 C48.472,47.813 47.444,50.293 46.357,52.919 L46.269,53.133 C44.905,56.427 43.287,59.382 41.179,62.431 L42.824,63.569 C45.016,60.4 46.698,57.327 48.117,53.898 L48.205,53.685 C49.342,50.941 50.516,48.105 50.16,44.858 C49.907,42.561 48.886,40.22 47.207,38.089 C45.133,35.457 42.25,33.396 39.09,32.285 C38.123,31.945 37.132,31.69 36.173,31.444 C34.737,31.075 33.381,30.727 32.134,30.121 C31.356,29.743 30.017,28.923 29.787,27.676 C29.432,25.753 31.595,23.229 33.175,21.387 C33.606,20.884 34.002,20.419 34.328,19.999 L64,19.999 L64,17.999 L63.414,17.999 L63.414,18 Z M11.5,6.914 L17.086,12.5 L12,17.586 L6.414,12 L11.5,6.914 Z M22.5,9.914 L27.793,15.207 C28.184,15.598 28.816,15.598 29.207,15.207 L39.5,4.914 L46.293,11.707 C46.684,12.098 47.316,12.098 47.707,11.707 L51,8.414 L60.586,18 L14.414,18 L22.5,9.914 Z" id="Shape"></path>
            <path d="M28,8 C30.206,8 32,6.206 32,4 C32,1.794 30.206,0 28,0 C25.794,0 24,1.794 24,4 C24,6.206 25.794,8 28,8 Z M28,2 C29.103,2 30,2.897 30,4 C30,5.103 29.103,6 28,6 C26.897,6 26,5.103 26,4 C26,2.897 26.897,2 28,2 Z" id="Shape"></path>
            <path d="M49,26 L47,26 L47,28.556 C46.409,28.212 45.732,28 45,28 L45,30 C46.103,30 47,30.897 47,32 L49,32 C49,30.897 49.897,30 51,30 L51,28 C50.268,28 49.591,28.212 49,28.556 L49,26 Z" id="Shape"></path>
            <path d="M62,39 L60,39 L60,41.556 C59.409,41.212 58.732,41 58,41 L58,43 C59.103,43 60,43.897 60,45 L62,45 C62,43.897 62.897,43 64,43 L64,41 C63.268,41 62.591,41.212 62,41.556 L62,39 Z" id="Shape"></path>
            <path d="M57,58 L55,58 L55,60.556 C54.409,60.212 53.732,60 53,60 L53,62 C54.103,62 55,62.897 55,64 L57,64 C57,62.897 57.897,62 59,62 L59,60 C58.268,60 57.591,60.212 57,60.556 L57,58 Z" id="Shape"></path>
            <path d="M2,29 L4,29 C4,27.897 4.897,27 6,27 L6,25 C5.268,25 4.591,25.212 4,25.556 L4,23 L2,23 L2,25.556 C1.409,25.212 0.732,25 0,25 L0,27 C1.103,27 2,27.897 2,29 Z" id="Shape"></path>
            <path d="M14,44 L14,46.556 C13.409,46.212 12.732,46 12,46 L12,48 C13.103,48 14,48.897 14,50 L16,50 C16,48.897 16.897,48 18,48 L18,46 C17.268,46 16.591,46.212 16,46.556 L16,44 L14,44 Z" id="Shape"></path>
            <rect id="Rectangle-path" x="53" y="33" width="2" height="2"></rect>
            <rect id="Rectangle-path" x="57" y="33" width="2" height="2"></rect>
            <rect id="Rectangle-path" x="61" y="33" width="2" height="2"></rect>
            <rect id="Rectangle-path" x="2" y="37" width="2" height="2"></rect>
            <rect id="Rectangle-path" x="6" y="37" width="2" height="2"></rect>
            <rect id="Rectangle-path" x="10" y="37" width="2" height="2"></rect>
            <rect id="Rectangle-path" x="24" y="28" width="2" height="2"></rect>
            <rect id="Rectangle-path" x="32" y="60" width="2" height="2"></rect>
            <rect id="Rectangle-path" x="27" y="62" width="2" height="2"></rect>
            <rect id="Rectangle-path" x="11" y="62" width="2" height="2"></rect>
            <path d="M21.429,30.956 C21.277,32.092 21.214,33.294 21.779,34.381 C22.676,36.105 24.631,36.632 26.276,37.074 C27.755,37.473 29.218,37.979 30.626,38.579 C31.192,38.82 32.915,39.554 33.014,40.16 L34.988,39.838 C34.712,38.145 32.645,37.265 31.411,36.739 C29.919,36.103 28.366,35.565 26.725,35.123 C25.408,34.769 24.046,34.402 23.555,33.457 C23.246,32.863 23.304,32.031 23.413,31.22 L21.429,30.956 Z" id="Shape"></path>
            <path d="M45.18,47.008 C45.657,42.73 44.315,39.234 41.497,37.417 C40.435,36.733 39.292,36.291 38.188,35.864 L37.466,37.729 C38.477,38.12 39.523,38.524 40.413,39.098 C43.475,41.073 43.376,45.133 43.192,46.786 L45.18,47.008 Z" id="Shape"></path>
            <path d="M37.309,53.215 C38.275,51.352 39.187,49.592 39.218,47.185 C39.244,45.152 38.64,43.223 37.514,41.752 L35.926,42.968 C36.78,44.083 37.238,45.572 37.218,47.159 C37.193,49.092 36.461,50.505 35.533,52.295 L37.309,53.215 Z" id="Shape"></path>
            <path d="M42.945,48.768 C42.339,53.072 39.975,57.301 36.46,60.369 L37.775,61.876 C41.647,58.496 44.253,53.82 44.925,49.047 L42.945,48.768 Z" id="Shape"></path>
            <path d="M32.468,53.588 C27.996,57.854 21.685,59.883 16.116,61.673 L16.728,63.577 C22.501,61.721 29.044,59.617 33.849,55.035 L32.468,53.588 Z" id="Shape"></path>
        </g>
    </g>
</svg>